<svg width="146" height="124" viewBox="0 0 146 124" fill="none" xmlns="http://www.w3.org/2000/svg">
<path d="M0 92.5C15.6 60.5 13.1667 29.8333 10 18.5C65.2 36.9 123.667 33.3333 146 29.5C140.8 44.3 140.833 87.5 141.5 107C78.7 91.8 21 91 0 92.5Z" fill="#E16354"/>
<path d="M114.5 9L115 0L121.5 7L129.5 4L124 12.5L128 19.5L120.5 17L114 23.5L114.5 14L106.5 11.5L114.5 9Z" fill="#FFFDFE"/>
<path d="M21 110.5L25 105L25.5 112L33 114L25.5 116.5L25 123.5L20.5 118L13.5 120L18 114L14.5 108L21 110.5Z" fill="#FFFDFE"/>
</svg>
