<svg width="140" height="107" viewBox="0 0 140 107" fill="none" xmlns="http://www.w3.org/2000/svg">
<path d="M0 107C13.2 61.8 8.5 20.5 4.5 5.5C23.6667 7 73.2 8 118 0C107.2 41.6 115.5 87 121 104.5C73.4 95.3 20.5 102.333 0 107Z" fill="#FFFDFE"/>
<path d="M132 74.5L127.5 71L129 76.5L124.5 80H130L132.5 85.5L134 80H140L135.5 76.5L136.5 71L132 74.5Z" fill="#FFFDFE"/>
<path d="M16 58.5V54L12 52L16 51L16.5 46L19 50L23 49L20 52.5L23 56L18.5 55L16 58.5Z" fill="#0C0B07"/>
<path d="M104 49.5L100 46.5L102 51L98 53.5H102.5L104.5 58L105.5 53.5L109.5 53L106 50.5L107 46.5L104 49.5Z" fill="#0C0B07"/>
</svg>
