<svg width="139" height="105" viewBox="0 0 139 105" fill="none" xmlns="http://www.w3.org/2000/svg">
<path d="M139 58.5C139 86.1142 93.6142 104.5 66 104.5C38.3858 104.5 0 95.1142 0 67.5C0 39.8858 49.8858 22 77.5 22C105.114 22 139 30.8858 139 58.5Z" fill="#E16354"/>
<path d="M12 24L12.5 16L17.5 22L25.5 20L20 27.5L24 33.5L17 31L11.5 37V29L4.5 27L12 24Z" fill="white"/>
<path d="M109.5 9L114.5 0L116.5 10L128.5 11.5L117.5 16.5L118 26.5L111.5 19L102 23L106.5 15L99.5 7L109.5 9Z" fill="white"/>
<path d="M38 17.5L38.5 14L40.5 16.7857L44 15.5L42 18.7381L43 21.5L40.0952 21L37.5 23.5V20L34.5 18.5L38 17.5Z" fill="white"/>
</svg>
