<svg width="162" height="114" viewBox="0 0 162 114" fill="none" xmlns="http://www.w3.org/2000/svg">
<path d="M141.286 58.0325C141.286 85.6468 112.286 109.573 79.2858 113.533C54.2859 116.532 19.923 103 16.9231 74.5325C11.4232 30.9999 58.9235 8.49996 88.9233 9.5C118.423 12 141.286 30.4183 141.286 58.0325Z" fill="#515AA5"/>
<path d="M24.9233 69L12.9233 65.5L19.4233 74.5L11.9233 85.5L24.4233 81L31.4233 90L31.9233 79.5L44.9233 74.5L32.4233 71L31.9233 58L24.9233 69Z" fill="#FFFDFE"/>
<path d="M11.9231 17.0002L3.42337 21L11.9231 22.5002L13.4233 32.0001L18.9233 24.5L27.4233 26L21.9233 19L27.4233 9L16.9233 14.5L11.4231 7.50017L11.9231 17.0002Z" fill="#FFFDFE"/>
<path d="M149.923 21.4999L143.923 21.5L148.423 25.4999L145.423 31.4999L150.923 27.9999L155.423 30.9999L154.423 26.4999L160.423 22.4999L153.923 21.4999L152.423 16.5L149.923 21.4999Z" fill="#FFFDFE"/>
</svg>
