<svg width="165" height="142" viewBox="0 0 165 142" fill="none" xmlns="http://www.w3.org/2000/svg">
<path d="M0 121.5C18 81.5 27 29.5 27 0.5C95 19 145 20.5 164.5 20.5C138.5 65.7 133 120.333 133.5 142C61.5 123 61 123.5 0 121.5Z" fill="#E16354"/>
<path d="M24.5 102L19 98.5L26 98L27.5 91L30.5 97.5L38.5 97L32.5 103L34.5 108.5L29 105L22.5 110L24.5 102Z" fill="white"/>
<path d="M110.501 112L105.5 105.5L113.5 107.5L118.501 98.9997L119.5 108.5L129.501 110L120 114L120.001 122.5L114.501 116L105.419 119.5L110.501 112Z" fill="white"/>
</svg>
