<svg width="150" height="99" viewBox="0 0 150 99" fill="none" xmlns="http://www.w3.org/2000/svg">
<path d="M11.5 9L10.5 0L17 6.5L25.5 2L20.5 10.5L26 17L17.5 15.5L12 24V14.5L3.5 13L11.5 9Z" fill="#FFFDFE"/>
<path d="M42 11.5L44.5 6.5L45.5 11.5L52 12L47 15V20L43 17L38.5 19.5L41 15L37 11L42 11.5Z" fill="#FFFDFE"/>
<path d="M138 4C84.8 24.4 23.5 31.8333 0 33C3 36.8333 9.5 56.2 11.5 99C74.7 71 130.5 65.6667 150 67C139.2 45.8 137.5 16.1667 138 4Z" fill="#E16354"/>
<path d="M122.5 90.5L123.5 85L126.5 90L132 89.5L127.5 93.5L129 98L125 95.5L120 99L122 94L117 91L122.5 90.5Z" fill="#FFFDFE"/>
</svg>
