<svg width="86" height="90" viewBox="0 0 86 90" fill="none" xmlns="http://www.w3.org/2000/svg">
<path d="M85.664 39.9998C85.664 67.614 61.164 91.461 35.664 89.4998C22.664 88.5 1.60471 82.5002 0.1052 55C-1.39442 27.4998 13.164 6.9998 42.164 1.4998C62.164 -2.29311 85.664 12.3856 85.664 39.9998Z" fill="#FFFDFE"/>
<path d="M19.1597 62.5L16.1597 58.5V64L11.6597 65.5L16.1597 66V71.5L19.6597 67.5L24.1597 68.5L21.1597 65L24.1597 60L19.1597 62.5Z" fill="#0C0B07"/>
<path d="M64.6597 54L62.6597 58.5L57.1597 58L61.1597 62L59.1597 66.5L63.6597 63.5L67.1597 66.5L66.1597 62.5L71.1597 59H66.1597L64.6597 54Z" fill="#0C0B07"/>
</svg>
